<svg xmlns="http://www.w3.org/2000/svg" xmlns:ev="http://www.w3.org/2001/xml-events" xmlns:xlink="http://www.w3.org/1999/xlink" baseProfile="full" fill-rule="evenodd" height="1024" version="1.1" width="1024">
  <defs/>
  <rect fill="white" height="1024" width="1024" x="0" y="0"/>
  <polygon fill="none" id="PolyStar0" points="498.1597460805047,362.63987355574477 512.0,312.0 525.8402539194954,362.6398735557448 548.7499035633141,315.40538006321964 553.0494485108125,367.7261535240772 584.2483332374306,325.5055541191289 578.8607533664807,377.72550629674066 617.2864325754712,341.9565728540772 602.3951954568885,392.2974159079641 646.7391287293115,364.19821655586816 622.8513375830989,410.94565345301646 671.6034454560479,391.4730727241487 639.5325703594422,433.03517556839665 691.0326582710125,422.85232884469235 651.8708344106534,457.8137500719271 704.3651286345638,457.26740198558343 659.4459649525852,484.43757232751443 711.1468352590069,493.5463281073396 662.0,512.0 711.1468352590069,530.4536718926604 659.4459649525852,539.5624276724856 704.3651286345638,566.7325980144166 651.8708344106534,566.1862499280729 691.0326582710125,601.1476711553076 639.5325703594422,590.9648244316033 671.6034454560479,632.5269272758512 622.8513375830989,613.0543465469835 646.7391287293115,659.8017834441318 602.3951954568885,631.702584092036 617.2864325754712,682.0434271459228 578.8607533664807,646.2744937032594 584.2483332374305,698.4944458808711 553.0494485108125,656.2738464759228 548.7499035633141,708.5946199367804 525.8402539194954,661.3601264442552 512.0,712.0 498.1597460805047,661.3601264442552 475.25009643668596,708.5946199367804 470.95055148918755,656.2738464759228 439.75166676256936,698.4944458808711 445.1392466335193,646.2744937032594 406.71356742452883,682.0434271459228 421.6048045431115,631.702584092036 377.26087127068854,659.8017834441318 401.1486624169012,613.0543465469837 352.3965545439521,632.5269272758512 384.46742964055784,590.9648244316033 332.96734172898755,601.1476711553075 372.12916558934666,566.186249928073 319.6348713654362,566.7325980144166 364.55403504741474,539.5624276724856 312.85316474099307,530.4536718926604 362.0,512.0000000000001 312.85316474099307,493.54632810733966 364.55403504741474,484.4375723275145 319.6348713654362,457.26740198558343 372.12916558934666,457.813750071927 332.96734172898755,422.8523288446923 384.46742964055784,433.03517556839665 352.3965545439521,391.4730727241488 401.1486624169011,410.9456534530164 377.26087127068854,364.19821655586816 421.6048045431115,392.2974159079641 406.7135674245288,341.9565728540772 445.1392466335193,377.7255062967406 439.7516667625694,325.5055541191289 470.95055148918766,367.7261535240771 475.250096436686,315.4053800632196" stroke="purple" stroke-width="2"/>
</svg>
