<svg xmlns="http://www.w3.org/2000/svg" xmlns:ev="http://www.w3.org/2001/xml-events" xmlns:xlink="http://www.w3.org/1999/xlink" baseProfile="full" fill-rule="evenodd" height="1024" version="1.1" width="1024">
  <defs/>
  <rect fill="white" height="1024" width="1024" x="0" y="0"/>
  <circle cx="512.0" cy="512.0" fill="none" id="Circle0" r="150" stroke="purple" stroke-width="2"/>
  <circle cx="512.0" cy="362.0" fill="white" id="Circle0_RotaryDial0" r="50" stroke="purple" stroke-width="2"/>
  <circle cx="629.2747223702045" cy="418.47652972119" fill="white" id="Circle1_RotaryDial0" r="50" stroke="purple" stroke-width="2"/>
  <circle cx="658.2391868272736" cy="545.3781400934472" fill="white" id="Circle2_RotaryDial0" r="50" stroke="purple" stroke-width="2"/>
  <circle cx="577.0825608676337" cy="647.1453301853628" fill="white" id="Circle3_RotaryDial0" r="50" stroke="purple" stroke-width="2"/>
  <circle cx="446.9174391323663" cy="647.1453301853628" fill="white" id="Circle4_RotaryDial0" r="50" stroke="purple" stroke-width="2"/>
  <circle cx="365.76081317272644" cy="545.3781400934472" fill="white" id="Circle5_RotaryDial0" r="50" stroke="purple" stroke-width="2"/>
  <circle cx="394.7252776297955" cy="418.47652972119" fill="white" id="Circle6_RotaryDial0" r="50" stroke="purple" stroke-width="2"/>
  <polygon fill="white" id="Polygon2_RotaryGon0" points="600.167787843871,583.3525491562422 647.7206136586286,617.9016994374948 629.5570504584947,673.8033988749895 570.7785252292473,673.8033988749895 552.6149620291133,617.9016994374948" stroke="purple" stroke-width="2"/>
  <polygon fill="white" id="Polygon0_RotaryGon0" points="512.0,142.0 566.7282037727621,168.35571386988866 580.2449538527277,227.576465376942 542.3718617382291,275.06782075316937 481.6281382617709,275.06782075316937 443.75504614727237,227.57646537694202 457.2717962272379,168.35571386988866" stroke="purple" stroke-width="2"/>
  <polygon fill="white" id="Polygon1_RotaryGon0" points="746.549444740409,254.95305944237998 801.277648513171,281.3087733122686 814.7943985931366,340.529524819322 776.921306478638,388.02088019554935 716.1775830021799,388.02088019554935 678.3044908876813,340.529524819322 691.8212409676469,281.3087733122686" stroke="purple" stroke-width="2"/>
  <polygon fill="white" id="Polygon2_RotaryGon0" points="804.4783736545471,508.7562801868943 859.2065774273092,535.1119940567829 872.7233275072748,594.3327455638363 834.8502353927762,641.8241009400637 774.106511916318,641.8241009400637 736.2334198018194,594.3327455638363 749.750169881785,535.1119940567829" stroke="purple" stroke-width="2"/>
  <polygon fill="white" id="Polygon3_RotaryGon0" points="642.1651217352675,712.2906603707257 696.8933255080295,738.6463742406144 710.4100755879952,797.8671257476677 672.5369834734965,845.3584811238951 611.7932599970384,845.3584811238951 573.9201678825398,797.8671257476677 587.4369179625054,738.6463742406144" stroke="purple" stroke-width="2"/>
  <polygon fill="white" id="Polygon4_RotaryGon0" points="381.8348782647326,712.2906603707257 436.56308203749467,738.6463742406144 450.0798321174602,797.8671257476677 412.2067400029617,845.3584811238951 351.4630165265035,845.3584811238951 313.58992441200496,797.8671257476677 327.1066744919705,738.6463742406144" stroke="purple" stroke-width="2"/>
  <polygon fill="white" id="Polygon5_RotaryGon0" points="219.5216263454529,508.7562801868944 274.24983011821496,535.111994056783 287.7665801981805,594.3327455638364 249.89348808368197,641.8241009400638 189.14976460722383,641.8241009400638 151.27667249272525,594.3327455638364 164.7934225726908,535.111994056783" stroke="purple" stroke-width="2"/>
  <polygon fill="white" id="Polygon6_RotaryGon0" points="277.45055525959106,254.95305944237998 332.1787590323531,281.3087733122686 345.6955091123187,340.529524819322 307.82241699782014,388.02088019554935 247.078693521362,388.02088019554935 209.20560140686342,340.529524819322 222.72235148682896,281.3087733122686" stroke="purple" stroke-width="2"/>
  <polygon fill="white" id="Polygon0_RotaryGon1" points="512.0,127.0 523.7274722370205,132.647652972119 526.6239186827273,145.33781400934473 518.5082560867634,155.5145330185363 505.49174391323663,155.5145330185363 497.3760813172726,145.33781400934473 500.27252776297956,132.647652972119" stroke="purple" stroke-width="2"/>
  <polygon fill="white" id="Polygon1_RotaryGon1" points="566.7282037727621,153.35571386988866 578.4556760097826,159.00336684200767 581.3521224554894,171.6935278792334 573.2364598595254,181.87024688842496 560.2199476859987,181.87024688842496 552.1042850900348,171.6935278792334 555.0007315357416,159.00336684200767" stroke="purple" stroke-width="2"/>
  <polygon fill="white" id="Polygon2_RotaryGon1" points="580.2449538527277,212.576465376942 591.9724260897482,218.224118349061 594.868872535455,230.91427938628672 586.7532099394911,241.0909983954783 573.7366977659643,241.0909983954783 565.6210351700004,230.91427938628672 568.5174816157072,218.224118349061" stroke="purple" stroke-width="2"/>
  <polygon fill="white" id="Polygon3_RotaryGon1" points="542.3718617382291,260.06782075316937 554.0993339752496,265.71547372528835 556.9957804209564,278.40563476251407 548.8801178249925,288.58235377170564 535.8636056514657,288.58235377170564 527.7479430555018,278.40563476251407 530.6443895012086,265.71547372528835" stroke="purple" stroke-width="2"/>
  <polygon fill="white" id="Polygon4_RotaryGon1" points="481.6281382617709,260.06782075316937 493.35561049879135,265.71547372528835 496.2520569444983,278.40563476251407 488.1363943485343,288.58235377170564 475.11988217500755,288.58235377170564 467.00421957904354,278.40563476251407 469.9006660247505,265.71547372528835" stroke="purple" stroke-width="2"/>
  <polygon fill="white" id="Polygon5_RotaryGon1" points="443.75504614727237,212.57646537694202 455.4825183842928,218.22411834906103 458.37896482999975,230.91427938628675 450.26330223403573,241.09099839547832 437.246790060509,241.09099839547832 429.131127464545,230.91427938628675 432.02757391025193,218.22411834906103" stroke="purple" stroke-width="2"/>
  <polygon fill="white" id="Polygon6_RotaryGon1" points="457.2717962272379,153.35571386988866 468.99926846425836,159.00336684200767 471.8957149099653,171.6935278792334 463.7800523140013,181.87024688842496 450.76354014047456,181.87024688842496 442.64787754451055,171.6935278792334 445.5443239902175,159.00336684200767" stroke="purple" stroke-width="2"/>
  <polygon fill="white" id="Polygon0_RotaryGon2" points="746.549444740409,239.95305944237998 758.2769169774294,245.600712414499 761.1733634231363,258.2908734517247 753.0577008271723,268.46759246091625 740.0411886536456,268.46759246091625 731.9255260576816,258.2908734517247 734.8219725033885,245.600712414499" stroke="purple" stroke-width="2"/>
  <polygon fill="white" id="Polygon1_RotaryGon2" points="801.277648513171,266.3087733122686 813.0051207501915,271.9564262843876 815.9015671958983,284.6465873216133 807.7859045999344,294.8233063308049 794.7693924264076,294.8233063308049 786.6537298304437,284.6465873216133 789.5501762761505,271.9564262843876" stroke="purple" stroke-width="2"/>
  <polygon fill="white" id="Polygon2_RotaryGon2" points="814.7943985931366,325.529524819322 826.5218708301571,331.17717779144095 829.418317275864,343.8673388286667 821.3026546799,354.04405783785825 808.2861425063733,354.04405783785825 800.1704799104093,343.8673388286667 803.0669263561161,331.17717779144095" stroke="purple" stroke-width="2"/>
  <polygon fill="white" id="Polygon3_RotaryGon2" points="776.921306478638,373.02088019554935 788.6487787156585,378.66853316766833 791.5452251613654,391.35869420489405 783.4295625654014,401.5354132140856 770.4130503918747,401.5354132140856 762.2973877959107,391.35869420489405 765.1938342416175,378.66853316766833" stroke="purple" stroke-width="2"/>
  <polygon fill="white" id="Polygon4_RotaryGon2" points="716.1775830021799,373.02088019554935 727.9050552392004,378.66853316766833 730.8015016849072,391.35869420489405 722.6858390889432,401.5354132140856 709.6693269154165,401.5354132140856 701.5536643194525,391.35869420489405 704.4501107651594,378.66853316766833" stroke="purple" stroke-width="2"/>
  <polygon fill="white" id="Polygon5_RotaryGon2" points="678.3044908876813,325.529524819322 690.0319631247017,331.17717779144095 692.9284095704086,343.8673388286667 684.8127469744446,354.04405783785825 671.7962348009179,354.04405783785825 663.6805722049539,343.8673388286667 666.5770186506608,331.17717779144095" stroke="purple" stroke-width="2"/>
  <polygon fill="white" id="Polygon6_RotaryGon2" points="691.8212409676469,266.3087733122686 703.5487132046674,271.9564262843876 706.4451596503742,284.6465873216133 698.3294970544102,294.8233063308049 685.3129848808835,294.8233063308049 677.1973222849196,284.6465873216133 680.0937687306264,271.9564262843876" stroke="purple" stroke-width="2"/>
  <polygon fill="white" id="Polygon0_RotaryGon3" points="804.4783736545471,493.7562801868943 816.2058458915676,499.40393315901326 819.1022923372744,512.094094196239 810.9866297413105,522.2708132054306 797.9701175677837,522.2708132054306 789.8544549718198,512.094094196239 792.7509014175266,499.40393315901326" stroke="purple" stroke-width="2"/>
  <polygon fill="white" id="Polygon1_RotaryGon3" points="859.2065774273092,520.1119940567829 870.9340496643297,525.7596470289019 873.8304961100365,538.4498080661276 865.7148335140726,548.6265270753192 852.6983213405458,548.6265270753192 844.5826587445819,538.4498080661276 847.4791051902887,525.7596470289019" stroke="purple" stroke-width="2"/>
  <polygon fill="white" id="Polygon2_RotaryGon3" points="872.7233275072748,579.3327455638363 884.4507997442953,584.9803985359553 887.3472461900021,597.670559573181 879.2315835940382,607.8472785823726 866.2150714205114,607.8472785823726 858.0994088245475,597.670559573181 860.9958552702543,584.9803985359553" stroke="purple" stroke-width="2"/>
  <polygon fill="white" id="Polygon3_RotaryGon3" points="834.8502353927762,626.8241009400637 846.5777076297967,632.4717539121826 849.4741540755035,645.1619149494084 841.3584914795396,655.3386339586 828.3419793060128,655.3386339586 820.2263167100489,645.1619149494084 823.1227631557557,632.4717539121826" stroke="purple" stroke-width="2"/>
  <polygon fill="white" id="Polygon4_RotaryGon3" points="774.106511916318,626.8241009400637 785.8339841533385,632.4717539121826 788.7304305990453,645.1619149494084 780.6147680030814,655.3386339586 767.5982558295547,655.3386339586 759.4825932335907,645.1619149494084 762.3790396792975,632.4717539121826" stroke="purple" stroke-width="2"/>
  <polygon fill="white" id="Polygon5_RotaryGon3" points="736.2334198018194,579.3327455638363 747.9608920388399,584.9803985359553 750.8573384845467,597.670559573181 742.7416758885828,607.8472785823726 729.725163715056,607.8472785823726 721.6095011190921,597.670559573181 724.5059475647989,584.9803985359553" stroke="purple" stroke-width="2"/>
  <polygon fill="white" id="Polygon6_RotaryGon3" points="749.750169881785,520.1119940567829 761.4776421188055,525.7596470289019 764.3740885645124,538.4498080661276 756.2584259685484,548.6265270753192 743.2419137950217,548.6265270753192 735.1262511990577,538.4498080661276 738.0226976447645,525.7596470289019" stroke="purple" stroke-width="2"/>
  <polygon fill="white" id="Polygon0_RotaryGon4" points="642.1651217352675,697.2906603707257 653.892593972288,702.9383133428447 656.7890404179948,715.6284743800704 648.6733778220308,725.8051933892621 635.6568656485041,725.8051933892621 627.5412030525401,715.6284743800704 630.437649498247,702.9383133428447" stroke="purple" stroke-width="2"/>
  <polygon fill="white" id="Polygon1_RotaryGon4" points="696.8933255080295,723.6463742406144 708.62079774505,729.2940272127333 711.5172441907569,741.9841882499591 703.4015815947929,752.1609072591507 690.3850694212662,752.1609072591507 682.2694068253022,741.9841882499591 685.165853271009,729.2940272127333" stroke="purple" stroke-width="2"/>
  <polygon fill="white" id="Polygon2_RotaryGon4" points="710.4100755879952,782.8671257476677 722.1375478250156,788.5147787197867 725.0339942707225,801.2049397570124 716.9183316747585,811.381658766204 703.9018195012318,811.381658766204 695.7861569052678,801.2049397570124 698.6826033509747,788.5147787197867" stroke="purple" stroke-width="2"/>
  <polygon fill="white" id="Polygon3_RotaryGon4" points="672.5369834734965,830.3584811238951 684.264455710517,836.0061340960141 687.1609021562239,848.6962951332398 679.0452395602599,858.8730141424314 666.0287273867332,858.8730141424314 657.9130647907692,848.6962951332398 660.809511236476,836.0061340960141" stroke="purple" stroke-width="2"/>
  <polygon fill="white" id="Polygon4_RotaryGon4" points="611.7932599970384,830.3584811238951 623.5207322340589,836.0061340960141 626.4171786797657,848.6962951332398 618.3015160838017,858.8730141424314 605.285003910275,858.8730141424314 597.169341314311,848.6962951332398 600.0657877600179,836.0061340960141" stroke="purple" stroke-width="2"/>
  <polygon fill="white" id="Polygon5_RotaryGon4" points="573.9201678825398,782.8671257476677 585.6476401195603,788.5147787197867 588.5440865652671,801.2049397570124 580.4284239693031,811.381658766204 567.4119117957764,811.381658766204 559.2962491998125,801.2049397570124 562.1926956455193,788.5147787197867" stroke="purple" stroke-width="2"/>
  <polygon fill="white" id="Polygon6_RotaryGon4" points="587.4369179625054,723.6463742406144 599.1643901995259,729.2940272127333 602.0608366452327,741.9841882499591 593.9451740492688,752.1609072591507 580.928661875742,752.1609072591507 572.8129992797781,741.9841882499591 575.7094457254849,729.2940272127333" stroke="purple" stroke-width="2"/>
  <polygon fill="white" id="Polygon0_RotaryGon5" points="381.8348782647326,697.2906603707257 393.56235050175303,702.9383133428447 396.45879694746,715.6284743800704 388.34313435149596,725.8051933892621 375.3266221779692,725.8051933892621 367.2109595820052,715.6284743800704 370.10740602771216,702.9383133428447" stroke="purple" stroke-width="2"/>
  <polygon fill="white" id="Polygon1_RotaryGon5" points="436.56308203749467,723.6463742406144 448.2905542745151,729.2940272127333 451.18700072022204,741.9841882499591 443.07133812425803,752.1609072591507 430.0548259507313,752.1609072591507 421.9391633547673,741.9841882499591 424.83560980047423,729.2940272127333" stroke="purple" stroke-width="2"/>
  <polygon fill="white" id="Polygon2_RotaryGon5" points="450.0798321174602,782.8671257476677 461.80730435448066,788.5147787197867 464.7037508001876,801.2049397570124 456.5880882042236,811.381658766204 443.57157603069686,811.381658766204 435.45591343473285,801.2049397570124 438.3523598804398,788.5147787197867" stroke="purple" stroke-width="2"/>
  <polygon fill="white" id="Polygon3_RotaryGon5" points="412.2067400029617,830.3584811238951 423.9342122399821,836.0061340960141 426.83065868568906,848.6962951332398 418.71499608972505,858.8730141424314 405.6984839161983,858.8730141424314 397.5828213202343,848.6962951332398 400.47926776594124,836.0061340960141" stroke="purple" stroke-width="2"/>
  <polygon fill="white" id="Polygon4_RotaryGon5" points="351.4630165265035,830.3584811238951 363.19048876352394,836.0061340960141 366.0869352092309,848.6962951332398 357.9712726132669,858.8730141424314 344.95476043974014,858.8730141424314 336.83909784377613,848.6962951332398 339.7355442894831,836.0061340960141" stroke="purple" stroke-width="2"/>
  <polygon fill="white" id="Polygon5_RotaryGon5" points="313.58992441200496,782.8671257476677 325.3173966490254,788.5147787197867 328.21384309473234,801.2049397570124 320.09818049876833,811.381658766204 307.0816683252416,811.381658766204 298.9660057292776,801.2049397570124 301.8624521749845,788.5147787197867" stroke="purple" stroke-width="2"/>
  <polygon fill="white" id="Polygon6_RotaryGon5" points="327.1066744919705,723.6463742406144 338.83414672899096,729.2940272127333 341.7305931746979,741.9841882499591 333.6149305787339,752.1609072591507 320.59841840520716,752.1609072591507 312.48275580924314,741.9841882499591 315.3792022549501,729.2940272127333" stroke="purple" stroke-width="2"/>
  <polygon fill="white" id="Polygon0_RotaryGon6" points="219.5216263454529,493.7562801868944 231.24909858247332,499.4039331590134 234.14554502818024,512.0940941962391 226.02988243221625,522.2708132054307 213.01337025868952,522.2708132054307 204.89770766272554,512.0940941962391 207.79415410843245,499.4039331590134" stroke="purple" stroke-width="2"/>
  <polygon fill="white" id="Polygon1_RotaryGon6" points="274.24983011821496,520.111994056783 285.9773023552354,525.759647028902 288.87374880094234,538.4498080661277 280.7580862049783,548.6265270753194 267.7415740314516,548.6265270753194 259.6259114354876,538.4498080661277 262.5223578811945,525.759647028902" stroke="purple" stroke-width="2"/>
  <polygon fill="white" id="Polygon2_RotaryGon6" points="287.7665801981805,579.3327455638364 299.49405243520096,584.9803985359554 302.3904988809079,597.6705595731811 294.2748362849439,607.8472785823727 281.25832411141715,607.8472785823727 273.14266151545314,597.6705595731811 276.0391079611601,584.9803985359554" stroke="purple" stroke-width="2"/>
  <polygon fill="white" id="Polygon3_RotaryGon6" points="249.89348808368197,626.8241009400638 261.6209603207024,632.4717539121827 264.51740676640935,645.1619149494085 256.40174417044534,655.3386339586001 243.3852319969186,655.3386339586001 235.26956940095462,645.1619149494085 238.16601584666154,632.4717539121827" stroke="purple" stroke-width="2"/>
  <polygon fill="white" id="Polygon4_RotaryGon6" points="189.14976460722383,626.8241009400638 200.87723684424427,632.4717539121827 203.77368328995118,645.1619149494085 195.6580206939872,655.3386339586001 182.64150852046046,655.3386339586001 174.52584592449648,645.1619149494085 177.4222923702034,632.4717539121827" stroke="purple" stroke-width="2"/>
  <polygon fill="white" id="Polygon5_RotaryGon6" points="151.27667249272525,579.3327455638364 163.0041447297457,584.9803985359554 165.9005911754526,597.6705595731811 157.78492857948862,607.8472785823727 144.7684164059619,607.8472785823727 136.6527538099979,597.6705595731811 139.54920025570482,584.9803985359554" stroke="purple" stroke-width="2"/>
  <polygon fill="white" id="Polygon6_RotaryGon6" points="164.7934225726908,520.111994056783 176.52089480971122,525.759647028902 179.41734125541814,538.4498080661277 171.30167865945415,548.6265270753194 158.28516648592742,548.6265270753194 150.16950388996344,538.4498080661277 153.06595033567035,525.759647028902" stroke="purple" stroke-width="2"/>
  <polygon fill="white" id="Polygon0_RotaryGon7" points="277.45055525959106,239.95305944237998 289.1780274966115,245.600712414499 292.07447394231843,258.2908734517247 283.9588113463544,268.46759246091625 270.9422991728277,268.46759246091625 262.8266365768637,258.2908734517247 265.7230830225706,245.600712414499" stroke="purple" stroke-width="2"/>
  <polygon fill="white" id="Polygon1_RotaryGon7" points="332.1787590323531,266.3087733122686 343.90623126937356,271.9564262843876 346.8026777150805,284.6465873216133 338.6870151191165,294.8233063308049 325.67050294558976,294.8233063308049 317.55484034962575,284.6465873216133 320.4512867953327,271.9564262843876" stroke="purple" stroke-width="2"/>
  <polygon fill="white" id="Polygon2_RotaryGon7" points="345.6955091123187,325.529524819322 357.4229813493391,331.17717779144095 360.31942779504607,343.8673388286667 352.20376519908206,354.04405783785825 339.1872530255553,354.04405783785825 331.0715904295913,343.8673388286667 333.96803687529825,331.17717779144095" stroke="purple" stroke-width="2"/>
  <polygon fill="white" id="Polygon3_RotaryGon7" points="307.82241699782014,373.02088019554935 319.5498892348406,378.66853316766833 322.4463356805475,391.35869420489405 314.3306730845835,401.5354132140856 301.3141609110568,401.5354132140856 293.19849831509276,391.35869420489405 296.0949447607997,378.66853316766833" stroke="purple" stroke-width="2"/>
  <polygon fill="white" id="Polygon4_RotaryGon7" points="247.078693521362,373.02088019554935 258.80616575838246,378.66853316766833 261.70261220408935,391.35869420489405 253.58694960812537,401.5354132140856 240.57043743459863,401.5354132140856 232.45477483863465,391.35869420489405 235.35122128434156,378.66853316766833" stroke="purple" stroke-width="2"/>
  <polygon fill="white" id="Polygon5_RotaryGon7" points="209.20560140686342,325.529524819322 220.93307364388386,331.17717779144095 223.82952008959077,343.8673388286667 215.7138574936268,354.04405783785825 202.69734532010006,354.04405783785825 194.58168272413607,343.8673388286667 197.478129169843,331.17717779144095" stroke="purple" stroke-width="2"/>
  <polygon fill="white" id="Polygon6_RotaryGon7" points="222.72235148682896,266.3087733122686 234.4498237238494,271.9564262843876 237.3462701695563,284.6465873216133 229.23060757359232,294.8233063308049 216.2140954000656,294.8233063308049 208.0984328041016,284.6465873216133 210.99487924980852,271.9564262843876" stroke="purple" stroke-width="2"/>
</svg>
