<svg xmlns="http://www.w3.org/2000/svg" xmlns:ev="http://www.w3.org/2001/xml-events" xmlns:xlink="http://www.w3.org/1999/xlink" baseProfile="full" fill-rule="evenodd" height="1024" version="1.1" width="1024">
  <defs/>
  <polyline fill="none" points="512,312 512.0,512.0 702,450 512.0,512.0 630,674 512.0,512.0 394,674 512.0,512.0 322,450 512.0,512.0" stroke="green" stroke-width="2"/>
  <polygon fill="none" points="512,312 702,450 630,674 394,674 322,450" stroke="green" stroke-linejoin="bevel" stroke-width="2"/>
  <circle cx="512.0" cy="512.0" fill="none" r="200" stroke="purple" stroke-width="2"/>
  <polyline fill="none" points="512,245 512,312 575,291 512,312 551,366 512,312 473,366 512,312 449,291 512,312" stroke="green" stroke-width="2"/>
  <polygon fill="none" points="512,245 575,291 551,366 473,366 449,291" stroke="green" stroke-linejoin="bevel" stroke-width="2"/>
  <circle cx="512" cy="312" fill="none" r="66.66666666666667" stroke="purple" stroke-width="2"/>
  <polyline fill="none" points="702,383 702,450 765,429 702,450 741,504 702,450 663,504 702,450 639,429 702,450" stroke="green" stroke-width="2"/>
  <polygon fill="none" points="702,383 765,429 741,504 663,504 639,429" stroke="green" stroke-linejoin="bevel" stroke-width="2"/>
  <circle cx="702" cy="450" fill="none" r="66.66666666666667" stroke="purple" stroke-width="2"/>
  <polyline fill="none" points="630,607 630,674 693,653 630,674 669,728 630,674 591,728 630,674 567,653 630,674" stroke="green" stroke-width="2"/>
  <polygon fill="none" points="630,607 693,653 669,728 591,728 567,653" stroke="green" stroke-linejoin="bevel" stroke-width="2"/>
  <circle cx="630" cy="674" fill="none" r="66.66666666666667" stroke="purple" stroke-width="2"/>
  <polyline fill="none" points="394,607 394,674 457,653 394,674 433,728 394,674 355,728 394,674 331,653 394,674" stroke="green" stroke-width="2"/>
  <polygon fill="none" points="394,607 457,653 433,728 355,728 331,653" stroke="green" stroke-linejoin="bevel" stroke-width="2"/>
  <circle cx="394" cy="674" fill="none" r="66.66666666666667" stroke="purple" stroke-width="2"/>
  <polyline fill="none" points="322,383 322,450 385,429 322,450 361,504 322,450 283,504 322,450 259,429 322,450" stroke="green" stroke-width="2"/>
  <polygon fill="none" points="322,383 385,429 361,504 283,504 259,429" stroke="green" stroke-linejoin="bevel" stroke-width="2"/>
  <circle cx="322" cy="450" fill="none" r="66.66666666666667" stroke="purple" stroke-width="2"/>
</svg>
