<svg xmlns="http://www.w3.org/2000/svg" xmlns:ev="http://www.w3.org/2001/xml-events" xmlns:xlink="http://www.w3.org/1999/xlink" baseProfile="full" fill-rule="evenodd" height="1024" version="1.1" width="1024">
  <defs/>
  <rect fill="white" height="1024" width="1024" x="0" y="0"/>
  <circle cx="512.0" cy="512.0" fill="none" id="Circle0" r="150" stroke="purple" stroke-width="2"/>
  <circle cx="512.0" cy="362.0" fill="white" id="Circle0_RotaryDial0" r="50" stroke="purple" stroke-width="2"/>
  <circle cx="654.658477444273" cy="465.6474508437579" fill="white" id="Circle1_RotaryDial0" r="50" stroke="purple" stroke-width="2"/>
  <circle cx="600.167787843871" cy="633.3525491562422" fill="white" id="Circle2_RotaryDial0" r="50" stroke="purple" stroke-width="2"/>
  <circle cx="423.83221215612906" cy="633.3525491562422" fill="white" id="Circle3_RotaryDial0" r="50" stroke="purple" stroke-width="2"/>
  <circle cx="369.34152255572695" cy="465.6474508437579" fill="white" id="Circle4_RotaryDial0" r="50" stroke="purple" stroke-width="2"/>
  <polygon fill="white" id="Polygon0_RotaryGon0" points="512.0,442.0 559.5528258147576,476.54915028125265 541.3892626146237,532.4508497187473 482.61073738537635,532.4508497187473 464.4471741852423,476.54915028125265" stroke="purple" stroke-width="2"/>
  <polygon fill="white" id="Polygon1_RotaryGon0" points="531.0211303259031,455.819660112501 578.5739561406607,490.3688103937537 560.4103929405268,546.2705098312484 501.6318677112794,546.2705098312484 483.4683045111454,490.3688103937537" stroke="purple" stroke-width="2"/>
  <polygon fill="white" id="Polygon2_RotaryGon0" points="523.7557050458495,478.1803398874989 571.3085308606071,512.7294901687516 553.1449676604732,568.6311896062463 494.36644243122583,568.6311896062463 476.2028792310918,512.7294901687516" stroke="purple" stroke-width="2"/>
  <polygon fill="white" id="Polygon3_RotaryGon0" points="500.2442949541505,478.1803398874989 547.7971207689081,512.7294901687516 529.6335575687742,568.6311896062463 470.8550323395269,568.6311896062463 452.69146913939284,512.7294901687516" stroke="purple" stroke-width="2"/>
  <polygon fill="white" id="Polygon4_RotaryGon0" points="492.9788696740969,455.8196601125011 540.5316954888546,490.36881039375373 522.3681322887206,546.2705098312484 463.5896070594733,546.2705098312484 445.42604385933925,490.36881039375373" stroke="purple" stroke-width="2"/>
</svg>
