<?xml version="1.0" encoding="UTF-8" standalone="no"?>
<!-- Created with Inkscape (http://www.inkscape.org/) -->
<svg
   xmlns:svg="http://www.w3.org/2000/svg"
   xmlns="http://www.w3.org/2000/svg"
   version="1.0"
   width="184.45"
   height="190.17999"
   id="svg2559">
  <defs
     id="defs2561" />
  <g
     transform="translate(-337.50766,-354.21205)"
     id="layer1">
    <path
       d="M 420.31931,535.18634 C 403.6736,528.59249 391.17904,514.99761 378.3951,502.95265 C 365.36355,489.41228 350.80773,476.14669 343.49053,458.44948 C 341.28781,449.09678 342.21797,438.75197 347.87644,430.73016 C 359.9979,412.10097 376.51092,396.84373 392.60058,381.70183 C 401.75799,373.91626 411.24057,365.22836 423.22271,362.34428 C 432.05075,361.16627 441.21641,362.52777 448.57002,367.81348 C 466.96756,380.18618 482.22491,396.58667 497.33428,412.66011 C 506.90149,423.81583 518.35576,436.73302 516.75952,452.50551 C 514.01672,468.88858 501.1864,480.96715 490.57255,492.80477 C 476.45307,506.73225 462.93882,521.97006 445.62622,532.03058 C 437.99982,536.26258 428.7438,537.37048 420.31931,535.18634 z M 442.62329,529.11407 C 460.78002,519.205 474.5468,503.25399 488.97921,488.78219 C 498.84577,477.89713 510.48497,466.64963 512.99116,451.51224 C 513.8716,436.4432 502.50058,424.6453 493.45734,413.96939 C 478.95217,398.74128 464.56714,382.89743 446.86827,371.30304 C 437.88111,365.13603 425.60445,363.32137 415.99379,369.18436 C 398.34201,378.98996 384.75024,394.37764 370.57777,408.45178 C 360.63075,419.52425 349.16408,430.92416 346.1178,446.0403 C 344.59161,461.08863 356.03048,472.99344 365.02924,483.57919 C 379.15064,498.43688 393.28143,513.6272 410.04614,525.55639 C 419.55823,532.49534 431.94866,535.31254 442.62329,529.11407 z"
       id="path3612"
       style="fill:#ff0000;fill-opacity:1" />
  </g>
</svg>
