<svg xmlns="http://www.w3.org/2000/svg" xmlns:ev="http://www.w3.org/2001/xml-events" xmlns:xlink="http://www.w3.org/1999/xlink" baseProfile="full" fill-rule="evenodd" height="1024" version="1.1" width="1024">
  <defs>
    <mask id="blank-circles">
      <rect width="100%" height="100%" fill="white"/>
      <!-- Holes where each of the outer circles are. -->
      <!-- We are using <use> elements so we don't need to define the circles twice. -->
      <use xlink:href="#c1" fill="black"/>
      <use xlink:href="#c2" fill="black"/>
      <use xlink:href="#c3" fill="black"/>
      <use xlink:href="#c4" fill="black"/>
      <use xlink:href="#c5" fill="black"/>
      <use xlink:href="#c6" fill="black"/>
      <use xlink:href="#c7" fill="black"/>
    </mask>
  </defs>
  <!-- Mask is applied to all the elements via a parent <g> element -->
  <g mask="url(#blank-circles)">
    <polyline fill="none" points="512,312 512.0,512.0 668,387 512.0,512.0 707,557 512.0,512.0 599,692 512.0,512.0 425,692 512.0,512.0 317,557 512.0,512.0 356,387 512.0,512.0" stroke="green" stroke-width="1"/>
    <polygon fill="none" points="512,312 668,387 707,557 599,692 425,692 317,557 356,387" stroke="green" stroke-linejoin="bevel" stroke-width="1"/>
    <circle cx="512.0" cy="512.0" fill="none" r="200" stroke="purple" stroke-width="1"/>
    <g fill="none" stroke="purple" stroke-width="1">
      <!-- fill and stroke properties are moved to a parent <g> so that they
           aren't applied when referenced from the <mask>. -->
      <circle id="c1" cx="512" cy="312" r="66.66666666666667"/>
      <circle id="c2" cx="668" cy="387" r="66.66666666666667"/>
      <circle id="c3" cx="707" cy="557" r="66.66666666666667"/>
      <circle id="c4" cx="599" cy="692" r="66.66666666666667"/>
      <circle id="c5" cx="425" cy="692" r="66.66666666666667"/>
      <circle id="c6" cx="317" cy="557" r="66.66666666666667"/>
      <circle id="c7" cx="356" cy="387" r="66.66666666666667"/>
    </g>
  </g>
</svg>